# xmcd CD database file
#
# Track frame offsets:
#	150
#	26452
#	42960
#	64647
#	79925
#	103045
#	123097
#	139842
#	159232
#	170445
#	182797
#	197490
#	210645
#	224425
#	237557
#	260372
#	277312
#	290037
#	305242
#	317867
#
# Disc length: 4444 seconds
#
# Revision: 2
# Processed by: cddbd v1.4PL0 Copyright (c) Steve Scherf et al.
# Submitted via: CDex 1.50beta10
#
DISCID=33115a14
DTITLE=Jesse James - Versatility
DYEAR=1998
DGENRE=Blues
TTITLE0=I Can Do Bad By Myself (Remix)
TTITLE1=I Never Meant To Love Her
TTITLE2=It Takes One To Know One
TTITLE3=At Last
TTITLE4=Something To Believe In
TTITLE5=Don't Get Amnesia
TTITLE6=If You Want A Love Affair
TTITLE7=I Wanted You So
TTITLE8=Don't Nobody Want To Get Married (Part 1)
TTITLE9=Don't Nobody Want To Get Married (Part 2)
TTITLE10=You Ought To Be Here With Me
TTITLE11=I Don't Want It To End
TTITLE12=Don't Take Away Your Love
TTITLE13=When We Become As One
TTITLE14=I Can Do Bad By Myself  (Original)
TTITLE15=You Were Doin' Bad When I Met You
TTITLE16=I Call On You
TTITLE17=Believe In Me Baby (Part 1)
TTITLE18=Believe In Me Baby (Part 2)
TTITLE19=I Need You Baby
EXTD=YEAR: 1998
EXTT0=
EXTT1=
EXTT2=
EXTT3=
EXTT4=
EXTT5=
EXTT6=
EXTT7=
EXTT8=
EXTT9=
EXTT10=
EXTT11=
EXTT12=
EXTT13=
EXTT14=
EXTT15=
EXTT16=
EXTT17=
EXTT18=
EXTT19=
PLAYORDER=
